<?xml version="1.0" standalone="no"?>
<!DOCTYPE svg PUBLIC "-//W3C//DTD SVG 20010904//EN"
 "http://www.w3.org/TR/2001/REC-SVG-20010904/DTD/svg10.dtd">
<svg version="1.0" xmlns="http://www.w3.org/2000/svg"
 width="254.000000pt" height="254.000000pt" viewBox="0 0 254.000000 254.000000"
 preserveAspectRatio="xMidYMid meet">
<metadata>
Created by potrace 1.11, written by Peter Selinger 2001-2013
</metadata>
<g transform="translate(0.000000,254.000000) scale(0.100000,-0.100000)"
fill="#000000" stroke="none">
<path d="M1863 1952 c-19 -2 -43 -14 -57 -30 -33 -36 -285 -356 -282 -359 3
-3 416 65 432 71 8 3 7 26 -3 83 -15 83 -16 89 -27 170 -9 60 -18 70 -63 65z"/>
<path d="M1599 1906 c-2 -3 -26 -7 -53 -11 -27 -3 -88 -12 -135 -21 -47 -8
-102 -17 -121 -20 -19 -2 -44 -6 -56 -9 -12 -2 -39 -7 -60 -10 -21 -3 -48 -8
-60 -10 -12 -3 -39 -7 -60 -10 -21 -4 -77 -13 -124 -21 -47 -8 -96 -16 -110
-18 -14 -3 -68 -12 -120 -20 -52 -9 -106 -18 -120 -21 -13 -3 -42 -7 -65 -11
-176 -25 -260 -55 -344 -121 -117 -92 -171 -220 -169 -400 1 -110 16 -191 51
-284 61 -162 150 -256 292 -308 75 -28 208 -31 345 -7 52 10 106 19 120 21 14
2 189 32 390 65 201 34 373 62 383 63 9 1 17 5 17 8 0 13 -332 269 -349 269
-9 -1 -50 -7 -91 -15 -113 -21 -340 -62 -380 -69 -154 -26 -270 -27 -317 -3
-90 47 -144 174 -121 282 8 38 22 60 62 100 50 51 92 69 178 79 20 3 69 11
128 21 8 1 35 6 60 10 25 4 52 9 60 10 8 1 119 19 245 40 l230 36 33 37 c56
62 274 343 270 348 -3 2 -7 2 -9 0z"/>
<path d="M1865 1134 c-137 -24 -270 -46 -295 -50 -25 -3 -63 -9 -84 -13 l-40
-6 80 -63 c43 -35 86 -69 95 -76 85 -70 174 -136 183 -136 6 0 45 6 86 14 41
8 93 17 115 20 22 4 69 11 105 17 36 6 79 13 95 15 17 3 56 10 87 15 32 6 70
12 85 15 16 2 39 7 53 9 14 3 43 8 65 11 22 3 41 7 42 7 0 1 -53 40 -119 87
-66 47 -125 90 -131 95 -45 38 -126 85 -147 84 -14 -1 -137 -21 -275 -45z"/>
</g>
</svg>
